<svg width="36" height="36" viewBox="0 0 36 36" fill="none" xmlns="http://www.w3.org/2000/svg">
<g id="instagram">
<path id="Vector" d="M25.5 3H10.5C6.35786 3 3 6.35786 3 10.5V25.5C3 29.6421 6.35786 33 10.5 33H25.5C29.6421 33 33 29.6421 33 25.5V10.5C33 6.35786 29.6421 3 25.5 3Z" stroke="black" stroke-width="3" stroke-linecap="round" stroke-linejoin="round"/>
<path id="Vector_2" d="M23.9999 17.0545C24.185 18.3028 23.9718 19.5778 23.3906 20.698C22.8093 21.8182 21.8896 22.7266 20.7624 23.294C19.6351 23.8614 18.3576 24.0589 17.1116 23.8584C15.8656 23.6579 14.7146 23.0696 13.8222 22.1772C12.9298 21.2848 12.3415 20.1338 12.141 18.8878C11.9405 17.6418 12.138 16.3643 12.7054 15.237C13.2728 14.1098 14.1812 13.1901 15.3014 12.6088C16.4216 12.0276 17.6966 11.8144 18.9449 11.9995C20.2183 12.1883 21.3972 12.7817 22.3075 13.6919C23.2177 14.6022 23.8111 15.7811 23.9999 17.0545Z" stroke="black" stroke-width="3" stroke-linecap="round" stroke-linejoin="round"/>
<path id="Vector_3" d="M26.25 9.75H26.265" stroke="black" stroke-width="3" stroke-linecap="round" stroke-linejoin="round"/>
</g>
</svg>
