<svg width="44" height="44" viewBox="0 0 44 44" fill="none" xmlns="http://www.w3.org/2000/svg">
<g id="youtube">
<path id="Vector" d="M33.8099 9.63C33.6317 8.91811 33.2688 8.26586 32.7579 7.73911C32.2469 7.21236 31.606 6.82978 30.8999 6.63C28.3199 6 17.9999 6 17.9999 6C17.9999 6 7.67988 6 5.09988 6.69C4.39375 6.88978 3.75285 7.27236 3.2419 7.79911C2.73095 8.32586 2.36806 8.97811 2.18988 9.69C1.7177 12.3083 1.48673 14.9645 1.49988 17.625C1.48305 20.3056 1.71403 22.982 2.18988 25.62C2.38632 26.3098 2.75734 26.9372 3.2671 27.4417C3.77685 27.9462 4.40811 28.3107 5.09988 28.5C7.67988 29.19 17.9999 29.19 17.9999 29.19C17.9999 29.19 28.3199 29.19 30.8999 28.5C31.606 28.3002 32.2469 27.9176 32.7579 27.3909C33.2688 26.8641 33.6317 26.2119 33.8099 25.5C34.2784 22.9014 34.5094 20.2655 34.4999 17.625C34.5167 14.9444 34.2857 12.268 33.8099 9.63Z" stroke="black" stroke-width="3" stroke-linecap="round" stroke-linejoin="round"/>
<path id="Vector_2" d="M14.625 22.5297L23.25 17.6247L14.625 12.7197V22.5297Z" stroke="black" stroke-width="3" stroke-linecap="round" stroke-linejoin="round"/>
</g>
</svg>
