<svg width="38" height="37" viewBox="0 0 38 37" fill="none" xmlns="http://www.w3.org/2000/svg">
<path d="M23.75 36.25H20C19.337 36.25 18.7011 35.9866 18.2322 35.5178C17.7634 35.0489 17.5 34.413 17.5 33.75V27.5H20V33.75H23.75V27.5H26.25V22.5C26.25 22.1685 26.1183 21.8505 25.8839 21.6161C25.6495 21.3817 25.3315 21.25 25 21.25H14.1L11.6 13.75H3.75C3.41848 13.75 3.10054 13.8817 2.86612 14.1161C2.6317 14.3505 2.5 14.6685 2.5 15V22.5H5V33.75H10V25H12.5V33.75C12.5 34.413 12.2366 35.0489 11.7678 35.5178C11.2989 35.9866 10.663 36.25 10 36.25H5C4.33696 36.25 3.70107 35.9866 3.23223 35.5178C2.76339 35.0489 2.5 34.413 2.5 33.75V25C1.83696 25 1.20107 24.7366 0.732233 24.2678C0.263392 23.7989 0 23.163 0 22.5V15C0.000992769 14.0057 0.3964 13.0525 1.09945 12.3494C1.80249 11.6464 2.75574 11.251 3.75 11.25H11.6C12.1245 11.2501 12.6358 11.4151 13.0613 11.7218C13.4869 12.0284 13.8052 12.4612 13.9713 12.9588L15.9 18.75H25C25.9943 18.751 26.9475 19.1464 27.6506 19.8494C28.3536 20.5525 28.749 21.5057 28.75 22.5V27.5C28.75 28.163 28.4866 28.7989 28.0178 29.2678C27.5489 29.7366 26.913 30 26.25 30V33.75C26.25 34.413 25.9866 35.0489 25.5178 35.5178C25.0489 35.9866 24.413 36.25 23.75 36.25ZM33.75 36.25H31.25V22.5H35V15C35 14.6685 34.8683 14.3505 34.6339 14.1161C34.3995 13.8817 34.0815 13.75 33.75 13.75H28.75V11.25H33.75C34.7443 11.251 35.6975 11.6464 36.4006 12.3494C37.1036 13.0525 37.499 14.0057 37.5 15V22.5C37.5 23.163 37.2366 23.7989 36.7678 24.2678C36.2989 24.7366 35.663 25 35 25H33.75V36.25ZM7.5 10C6.51109 10 5.54439 9.70676 4.72215 9.15735C3.8999 8.60794 3.25904 7.82705 2.8806 6.91342C2.50216 5.99979 2.40315 4.99446 2.59607 4.02455C2.789 3.05465 3.2652 2.16373 3.96447 1.46447C4.66373 0.765206 5.55464 0.289002 6.52455 0.0960758C7.49445 -0.0968502 8.49979 0.00216639 9.41342 0.380605C10.327 0.759043 11.1079 1.39991 11.6573 2.22215C12.2068 3.0444 12.5 4.0111 12.5 5C12.4983 6.32558 11.971 7.59639 11.0337 8.53371C10.0964 9.47103 8.82557 9.99835 7.5 10ZM7.5 2.5C7.00555 2.5 6.5222 2.64662 6.11107 2.92133C5.69995 3.19603 5.37952 3.58648 5.1903 4.04329C5.00108 4.50011 4.95157 5.00278 5.04804 5.48773C5.1445 5.97268 5.3826 6.41814 5.73223 6.76777C6.08186 7.1174 6.52732 7.3555 7.01227 7.45197C7.49723 7.54843 7.99989 7.49892 8.45671 7.3097C8.91352 7.12048 9.30397 6.80005 9.57867 6.38893C9.85338 5.97781 10 5.49446 10 5C10 4.33696 9.73661 3.70108 9.26777 3.23224C8.79893 2.76339 8.16304 2.5 7.5 2.5ZM30 10C29.0111 10 28.0444 9.70676 27.2221 9.15735C26.3999 8.60794 25.759 7.82705 25.3806 6.91342C25.0022 5.99979 24.9031 4.99446 25.0961 4.02455C25.289 3.05465 25.7652 2.16373 26.4645 1.46447C27.1637 0.765206 28.0546 0.289002 29.0245 0.0960758C29.9945 -0.0968502 30.9998 0.00216639 31.9134 0.380605C32.827 0.759043 33.6079 1.39991 34.1573 2.22215C34.7068 3.0444 35 4.0111 35 5C34.9983 6.32558 34.471 7.59639 33.5337 8.53371C32.5964 9.47103 31.3256 9.99835 30 10ZM30 2.5C29.5055 2.5 29.0222 2.64662 28.6111 2.92133C28.1999 3.19603 27.8795 3.58648 27.6903 4.04329C27.5011 4.50011 27.4516 5.00278 27.548 5.48773C27.6445 5.97268 27.8826 6.41814 28.2322 6.76777C28.5819 7.1174 29.0273 7.3555 29.5123 7.45197C29.9972 7.54843 30.4999 7.49892 30.9567 7.3097C31.4135 7.12048 31.804 6.80005 32.0787 6.38893C32.3534 5.97781 32.5 5.49446 32.5 5C32.5 4.33696 32.2366 3.70108 31.7678 3.23224C31.2989 2.76339 30.663 2.5 30 2.5Z" fill="#1E85A2"/>
</svg>
