<svg width="29" height="36" viewBox="0 0 29 36" fill="none" xmlns="http://www.w3.org/2000/svg">
<path d="M1 34.3333V32.6667C1 29.5517 1 27.9933 1.67 26.8333C2.10882 26.0733 2.73997 25.4422 3.5 25.0033C4.66 24.3333 6.21667 24.3333 9.33333 24.3333L14.3333 31L19.3333 24.3333C22.45 24.3333 24.0067 24.3333 25.1667 25.0033C25.9267 25.4422 26.5578 26.0733 26.9967 26.8333C27.6667 27.9933 27.6667 29.5517 27.6667 32.6667V34.3333M20.895 11L22.5917 4.10667C22.98 2.52833 21.805 1 20.205 1H8.46167C6.86167 1 5.68667 2.52833 6.075 4.10667L7.77167 11M20.895 11V14.3333C20.895 18.015 17.9583 21 14.3333 21C10.7083 21 7.77167 18.015 7.77167 14.3333V11M20.895 11H7.77167M14.3333 4.33333V7.66667M16 6H12.6667" stroke="#1E85A2" stroke-width="2" stroke-linecap="round" stroke-linejoin="round"/>
</svg>
