<svg width="20" height="27" viewBox="0 0 20 27" fill="none" xmlns="http://www.w3.org/2000/svg">
<path d="M17.2942 12.4437C17.6629 12.8124 17.9554 13.2501 18.155 13.7318C18.3546 14.2135 18.4573 14.7298 18.4573 15.2512C18.4573 15.7727 18.3546 16.289 18.155 16.7707C17.9554 17.2524 17.6629 17.6901 17.2942 18.0587L17.2817 18.0712L9.6042 25.75L1.9242 18.07L1.91295 18.0587C1.53558 17.6817 1.23815 17.2324 1.03844 16.7378C0.838731 16.2431 0.740857 15.7133 0.750671 15.1799C0.760486 14.6466 0.877789 14.1207 1.09556 13.6337C1.31333 13.1468 1.6271 12.7087 2.01808 12.3459C2.40907 11.983 2.86924 11.7027 3.37106 11.5218C3.87289 11.3408 4.40605 11.263 4.93865 11.2929C5.47125 11.3228 5.99235 11.4599 6.47075 11.6958C6.94916 11.9318 7.37506 12.2619 7.72295 12.6662L9.6042 14.5487L11.4167 12.7362C11.7681 12.3073 12.2054 11.9567 12.7006 11.707C13.1957 11.4574 13.7376 11.3142 14.2915 11.2868C14.8453 11.2593 15.3988 11.3482 15.9161 11.5477C16.4335 11.7472 16.9034 12.0529 17.2955 12.445L17.2942 12.4437ZM5.85295 4.5C5.85295 4.99246 5.94995 5.48009 6.1384 5.93506C6.32686 6.39003 6.60308 6.80343 6.9513 7.15165C7.29952 7.49987 7.71292 7.77609 8.16789 7.96455C8.62286 8.153 9.11049 8.25 9.60295 8.25C10.0954 8.25 10.583 8.153 11.038 7.96455C11.493 7.77609 11.9064 7.49987 12.2546 7.15165C12.6028 6.80343 12.879 6.39003 13.0675 5.93506C13.256 5.48009 13.353 4.99246 13.353 4.5C13.353 4.00754 13.256 3.51991 13.0675 3.06494C12.879 2.60997 12.6028 2.19657 12.2546 1.84835C11.9064 1.50013 11.493 1.22391 11.038 1.03545C10.583 0.846997 10.0954 0.75 9.60295 0.75C9.11049 0.75 8.62286 0.846997 8.16789 1.03545C7.71292 1.22391 7.29952 1.50013 6.9513 1.84835C6.60308 2.19657 6.32686 2.60997 6.1384 3.06494C5.94995 3.51991 5.85295 4.00754 5.85295 4.5Z" stroke="#1E85A2" stroke-width="1.5"/>
</svg>
