<svg width="32" height="30" viewBox="0 0 32 30" fill="none" xmlns="http://www.w3.org/2000/svg">
<path fill-rule="evenodd" clip-rule="evenodd" d="M9.625 7C10.5533 7 11.4435 6.63125 12.0999 5.97487C12.7562 5.3185 13.125 4.42826 13.125 3.5C13.125 2.57174 12.7562 1.6815 12.0999 1.02513C11.4435 0.368749 10.5533 0 9.625 0C8.69674 0 7.8065 0.368749 7.15013 1.02513C6.49375 1.6815 6.125 2.57174 6.125 3.5C6.125 4.42826 6.49375 5.3185 7.15013 5.97487C7.8065 6.63125 8.69674 7 9.625 7ZM9.625 5.25C10.0891 5.25 10.5342 5.06562 10.8624 4.73744C11.1906 4.40925 11.375 3.96413 11.375 3.5C11.375 3.03587 11.1906 2.59075 10.8624 2.26256C10.5342 1.93437 10.0891 1.75 9.625 1.75C9.16087 1.75 8.71575 1.93437 8.38756 2.26256C8.05937 2.59075 7.875 3.03587 7.875 3.5C7.875 3.96413 8.05937 4.40925 8.38756 4.73744C8.71575 5.06562 9.16087 5.25 9.625 5.25Z" fill="#1E85A2"/>
<path d="M13.1249 27.125V23.5638L14.8749 26.0636V27.125C14.8752 27.689 14.6939 28.2382 14.3577 28.6911C14.0215 29.144 13.5484 29.4765 13.0084 29.6395C12.4684 29.8025 11.8903 29.7872 11.3597 29.5959C10.8291 29.4046 10.3742 29.0475 10.0624 28.5775C9.751 29.0481 9.29614 29.4058 8.76534 29.5975C8.23455 29.7892 7.6561 29.8046 7.11582 29.6416C6.57555 29.4785 6.10224 29.1456 5.76612 28.6923C5.43 28.239 5.24899 27.6893 5.24993 27.125V17.1868C4.81424 17.4212 4.32114 17.5278 3.8275 17.4942C3.33386 17.4606 2.85977 17.2881 2.45989 16.9967C2.06002 16.7053 1.75064 16.3069 1.56743 15.8472C1.38423 15.3876 1.33466 14.8856 1.42443 14.399C1.62918 13.2904 1.83568 12.3218 2.0973 11.5273C2.35368 10.7441 2.7448 9.86388 3.47543 9.15775C4.27343 8.38862 5.19043 8.09375 5.9753 7.97388C6.62193 7.87413 7.34293 7.875 7.93793 7.875H7.97118L10.3862 9.625H7.97118C7.3368 9.625 6.7418 9.62675 6.23955 9.70375C5.67955 9.7895 5.1458 9.97938 4.6908 10.4178C4.25855 10.8351 3.9803 11.4021 3.7598 12.0733C3.53843 12.7479 3.34855 13.6176 3.14555 14.7158C3.10343 14.944 3.15371 15.1796 3.28531 15.3708C3.41691 15.5619 3.61907 15.693 3.8473 15.7351C4.07554 15.7772 4.31116 15.727 4.50233 15.5954C4.6935 15.4638 4.82456 15.2616 4.86668 15.0334C5.01543 14.2266 5.14843 13.5984 5.27968 13.1058L6.99993 13.3306V27.125C6.99751 27.3546 7.0854 27.5759 7.24465 27.7412C7.40391 27.9066 7.62176 28.0027 7.85125 28.0089C8.08074 28.0151 8.30347 27.9309 8.47142 27.7744C8.63937 27.6179 8.73908 27.4016 8.74905 27.1723L9.22068 18.375H10.9051L11.3749 27.1723C11.378 27.2872 11.4037 27.4003 11.4506 27.5053C11.4974 27.6103 11.5645 27.705 11.6479 27.7841C11.7314 27.8631 11.8296 27.925 11.9369 27.9661C12.0443 28.0072 12.1586 28.0267 12.2736 28.0236C12.3885 28.0205 12.5016 27.9948 12.6066 27.948C12.7116 27.9011 12.8063 27.8341 12.8854 27.7506C12.9644 27.6672 13.0263 27.569 13.0674 27.4616C13.1085 27.3543 13.128 27.2399 13.1249 27.125Z" fill="#1E85A2"/>
<path d="M10.3863 9.625H11.4074L11.4135 9.62587H11.4196C12.2894 9.64337 13.0708 9.94437 13.7226 10.437L14.644 8.92937C13.6917 8.24416 12.5482 7.87535 11.375 7.875H7.97125L10.3863 9.625ZM2.1875 17.5C1.60734 17.5 1.05094 17.7305 0.640704 18.1407C0.230468 18.5509 0 19.1073 0 19.6875V20.3901C0 20.6222 0.0921874 20.8447 0.256282 21.0088C0.420376 21.1729 0.642936 21.2651 0.875 21.2651C1.10706 21.2651 1.32962 21.1729 1.49372 21.0088C1.65781 20.8447 1.75 20.6222 1.75 20.3901V19.6875C1.75 19.5715 1.79609 19.4602 1.87814 19.3781C1.96019 19.2961 2.07147 19.25 2.1875 19.25C2.30353 19.25 2.41481 19.2961 2.49686 19.3781C2.57891 19.4602 2.625 19.5715 2.625 19.6875V28C2.625 28.2321 2.71719 28.4546 2.88128 28.6187C3.04538 28.7828 3.26794 28.875 3.5 28.875C3.73206 28.875 3.95462 28.7828 4.11872 28.6187C4.28281 28.4546 4.375 28.2321 4.375 28V19.6875C4.375 19.1073 4.14453 18.5509 3.7343 18.1407C3.32406 17.7305 2.76766 17.5 2.1875 17.5ZM27.125 19.6875C27.125 19.1073 27.3555 18.5509 27.7657 18.1407C28.1759 17.7305 28.7323 17.5 29.3125 17.5C29.8927 17.5 30.4491 17.7305 30.8593 18.1407C31.2695 18.5509 31.5 19.1073 31.5 19.6875V28C31.5 28.2321 31.4078 28.4546 31.2437 28.6187C31.0796 28.7828 30.8571 28.875 30.625 28.875C30.3929 28.875 30.1704 28.7828 30.0063 28.6187C29.8422 28.4546 29.75 28.2321 29.75 28V19.6875C29.75 19.5715 29.7039 19.4602 29.6219 19.3781C29.5398 19.2961 29.4285 19.25 29.3125 19.25C29.1965 19.25 29.0852 19.2961 29.0031 19.3781C28.9211 19.4602 28.875 19.5715 28.875 19.6875V20.3901C28.875 20.6222 28.7828 20.8447 28.6187 21.0088C28.4546 21.1729 28.2321 21.2651 28 21.2651C27.7679 21.2651 27.5454 21.1729 27.3813 21.0088C27.2172 20.8447 27.125 20.6222 27.125 20.3901V19.6875Z" fill="#1E85A2"/>
<path fill-rule="evenodd" clip-rule="evenodd" d="M21.0002 6.62375C22.9331 6.62375 24.5002 5.1415 24.5002 3.31187C24.5002 1.48312 22.9331 0 21.0002 0C19.0673 0 17.5002 1.48312 17.5002 3.31187C17.5002 5.14062 19.0665 6.62463 21.0002 6.62463M21.0002 4.96912C21.9662 4.96912 22.7502 4.228 22.7502 3.31275C22.7502 2.39838 21.9662 1.65725 21.0002 1.65725C20.0342 1.65725 19.2502 2.39838 19.2502 3.31275C19.2502 4.228 20.0333 4.96912 21.0002 4.96912ZM22.2943 8.28012C22.6706 8.28012 23.3268 8.3195 24.0155 8.64762C25.1792 9.20237 25.8442 10.1106 26.2388 10.9139L26.3115 11.0609C26.4488 11.3391 26.4865 11.4153 26.5066 11.4958C26.5136 11.5264 26.5188 11.557 26.525 11.6007C26.5372 11.6769 26.5556 11.7915 26.6046 12.0085C26.7586 12.6796 26.7621 12.6971 26.8496 13.1215C26.9327 13.5266 27.0963 14.3211 27.5583 16.4972C27.8436 17.8421 26.9222 19.152 25.5012 19.4215C25.2737 19.4653 25.0462 19.4792 24.8257 19.4661L25.6885 23.2636C25.8188 23.975 25.44 24.7511 24.6297 25.025C23.8352 25.2927 22.3958 25.669 20.5627 25.669C18.7287 25.669 17.2902 25.2927 16.4957 25.025C16.1355 24.91 15.8294 24.6678 15.6346 24.3437C15.4398 24.0196 15.3695 23.6357 15.437 23.2636L15.9095 20.6973C15.6833 20.7097 15.4565 20.6948 15.234 20.6526C13.8121 20.3822 12.8916 19.0732 13.1768 17.7275C13.638 15.5522 13.8016 14.7586 13.8856 14.3526C13.9731 13.9283 13.9766 13.9099 14.1297 13.2387C14.2916 12.5317 14.5086 11.6812 14.8866 10.9139C15.2803 10.1115 15.9453 9.20237 17.11 8.64762C17.7986 8.3195 18.4548 8.28012 18.8311 8.28012H22.2943ZM22.2943 9.9365H18.8302C18.5817 9.9365 18.237 9.9645 17.8957 10.1272C17.2018 10.458 16.767 11.0127 16.4721 11.613C16.1833 12.2001 15.9978 12.894 15.8395 13.5888C15.6881 14.2485 15.6863 14.259 15.6041 14.658L15.6023 14.6685C15.3691 15.7977 15.1322 16.9262 14.8918 18.0539C14.7965 18.5019 15.1036 18.9385 15.5778 19.0286C15.7966 19.0706 16.0145 19.0304 16.1947 18.9298L17.2325 13.5275L18.9545 13.8241L18.4058 16.6766L18.4268 16.6539L17.1703 23.4937C17.8467 23.7142 19.0455 24.0126 20.5618 24.0126C22.0782 24.0126 23.277 23.7151 23.9533 23.4937L22.696 16.6513L22.7143 16.6609L22.1692 13.8241L23.8912 13.5275L24.565 17.7135C24.74 17.8036 24.9465 17.8377 25.1556 17.7984C25.629 17.7083 25.9361 17.2716 25.8407 16.8236C25.3787 14.6449 25.2151 13.8469 25.1302 13.4374L25.1285 13.4286C25.0462 13.0288 25.0445 13.0183 24.894 12.3585C24.8292 12.075 24.824 11.9963 24.8231 11.963C24.8231 11.9543 24.8225 11.9475 24.8213 11.9429C24.8187 11.9324 24.8135 11.9236 24.7986 11.8974C24.7776 11.858 24.7356 11.7819 24.6516 11.6121C24.3567 11.0127 23.9218 10.4571 23.228 10.1264C22.934 9.995 22.6146 9.93017 22.2926 9.9365" fill="#1E85A2"/>
<path d="M16.625 28.5075V26.4967C17.7669 26.6455 18.8186 26.7382 19.8467 26.7741L19.1966 28.8592C19.0111 29.4516 18.3951 29.8252 17.7494 29.7368C17.1036 29.6493 16.625 29.1243 16.625 28.5075ZM21.9362 28.8846L21.2319 26.7898C22.3242 26.7727 23.415 26.7003 24.5 26.5728V28.5083C24.5 29.1208 24.0275 29.6415 23.3887 29.7351C22.75 29.8296 22.1331 29.4682 21.9362 28.8846Z" fill="#1E85A2"/>
</svg>
