<svg width="40" height="40" viewBox="0 0 40 40" fill="none" xmlns="http://www.w3.org/2000/svg">
<path fill-rule="evenodd" clip-rule="evenodd" d="M26.667 25.6942C26.667 25.0312 26.9304 24.3953 27.3992 23.9264C27.8681 23.4576 28.504 23.1942 29.167 23.1942C29.83 23.1942 30.4659 23.4576 30.9348 23.9264C31.4036 24.3953 31.667 25.0312 31.667 25.6942V35.8334C31.667 36.0544 31.5792 36.2664 31.4229 36.4226C31.2666 36.5789 31.0547 36.6667 30.8337 36.6667C30.6126 36.6667 30.4007 36.5789 30.2444 36.4226C30.0881 36.2664 30.0003 36.0544 30.0003 35.8334V25.6942C30.0003 25.4732 29.9125 25.2612 29.7562 25.105C29.6 24.9487 29.388 24.8609 29.167 24.8609C28.946 24.8609 28.734 24.9487 28.5777 25.105C28.4215 25.2612 28.3337 25.4732 28.3337 25.6942V25.88C28.3337 26.1011 28.2459 26.313 28.0896 26.4693C27.9333 26.6256 27.7213 26.7134 27.5003 26.7134C27.2793 26.7134 27.0673 26.6256 26.9111 26.4693C26.7548 26.313 26.667 26.1011 26.667 25.88V25.6942Z" fill="#1E85A2"/>
<path fill-rule="evenodd" clip-rule="evenodd" d="M24.5611 11.6667C22.0527 11.6667 20.2544 13.1517 19.1136 15.1809C17.9919 17.1734 17.5002 19.6892 17.5002 21.9017C17.5002 22.5359 17.7102 23.1934 17.9477 23.7542C18.1944 24.3359 18.5144 24.9142 18.8227 25.4175C18.8938 25.5342 18.9647 25.647 19.0352 25.7559C19.1213 25.8902 19.167 26.0464 19.1669 26.2059V34.2775C19.1669 34.6234 19.4852 35 20.0002 35C20.5152 35 20.8336 34.6234 20.8336 34.2775V26.6184C20.8336 24.1434 21.6452 21.6625 22.3261 19.5792L22.3452 19.5217C22.4663 19.1534 22.5816 18.7967 22.6911 18.4517C22.8666 17.8989 23.0472 17.3781 23.2327 16.8892C23.2959 16.7218 23.4112 16.5792 23.5616 16.4825C23.7121 16.3857 23.8897 16.3399 24.0682 16.3519C24.2466 16.3638 24.4165 16.4329 24.5527 16.5489C24.6889 16.6649 24.7842 16.8216 24.8244 16.9959L25.4211 19.5609C25.4836 19.8292 25.6436 20.0275 25.8294 20.1292L29.6827 20.99C29.7342 21.0016 29.7844 21.0181 29.8327 21.0392C30.1577 21.18 30.5952 21.0392 30.7719 20.56C30.9452 20.0875 30.7386 19.6092 30.4136 19.4184L27.3302 18.8817C27.1691 18.8536 27.0199 18.7787 26.901 18.6664C26.7822 18.5541 26.699 18.4093 26.6619 18.25L25.2802 12.3167C25.1802 11.8892 24.8536 11.6667 24.5611 11.6667ZM17.6611 14.3634C18.9952 11.99 21.2694 10 24.5611 10C25.7152 10 26.6486 10.8442 26.9036 11.9392L28.1602 17.335L30.8169 17.7975C30.8819 17.8087 30.945 17.8275 31.0061 17.8542C32.2602 18.3984 32.7969 19.8825 32.3352 21.1359C31.8744 22.3892 30.5219 23.1 29.2502 22.6009L25.3719 21.7342C25.3205 21.7229 25.2703 21.7067 25.2219 21.6859C24.9076 21.5452 24.6258 21.3412 24.394 21.0865C24.1623 20.8318 23.9857 20.532 23.8752 20.2059C23.1902 22.3009 22.5002 24.4892 22.5002 26.6184V34.2775C22.5002 35.65 21.3252 36.6667 20.0002 36.6667C18.6752 36.6667 17.5002 35.65 17.5002 34.2775V26.4475C17.4669 26.3953 17.4338 26.342 17.4011 26.2875C17.0265 25.6846 16.6965 25.0552 16.4136 24.4042C16.1444 23.7709 15.8336 22.8684 15.8336 21.9017C15.8336 19.4817 16.3661 16.6659 17.6611 14.3634ZM8.43107 8.39587C8.53489 8.20089 8.71189 8.05511 8.92316 7.99058C9.13442 7.92604 9.36267 7.94803 9.55773 8.05171L14.2061 10.5225C14.3453 10.5966 14.4606 10.7086 14.5387 10.8456C14.6167 10.9826 14.6543 11.139 14.6471 11.2965C14.6398 11.454 14.5881 11.6062 14.4977 11.7355C14.4074 11.8647 14.2823 11.9657 14.1369 12.0267L12.7119 12.6234L15.3169 14.0609C15.507 14.1694 15.6468 14.3484 15.7061 14.5591C15.7653 14.7699 15.7392 14.9955 15.6335 15.1872C15.5277 15.3788 15.3508 15.5212 15.1409 15.5835C14.931 15.6458 14.7051 15.623 14.5119 15.52L10.3977 13.25C10.2606 13.1744 10.1475 13.0616 10.0716 12.9246C9.99559 12.7876 9.95977 12.6319 9.96821 12.4755C9.97665 12.3191 10.029 12.1682 10.1193 12.0402C10.2095 11.9122 10.3341 11.8122 10.4786 11.7517L11.8702 11.1684L8.77607 9.52337C8.67934 9.47204 8.59368 9.40214 8.52399 9.31767C8.45429 9.23321 8.40193 9.13584 8.36989 9.03113C8.33785 8.92641 8.32676 8.81641 8.33726 8.70741C8.34775 8.59841 8.37963 8.49255 8.43107 8.39587ZM8.19357 16.6484C8.28523 16.1817 8.71273 15.8759 9.14773 15.9659L12.2027 16.5992C12.3497 16.6322 12.4846 16.7056 12.5921 16.8112C12.6996 16.9168 12.7754 17.0503 12.8111 17.1967C12.8911 17.5034 12.8052 17.8359 12.5869 18.06L11.9227 18.7434L13.5377 19.1634C13.9669 19.275 14.2244 19.74 14.1119 20.2025C13.9994 20.665 13.5594 20.9492 13.1294 20.8375L10.1086 20.0509C9.96675 20.0108 9.83843 19.9331 9.7372 19.826C9.63597 19.7189 9.5656 19.5864 9.53357 19.4425C9.46107 19.14 9.54857 18.8175 9.76107 18.5984L10.3644 17.9784L8.81273 17.6575C8.37857 17.5675 8.10107 17.115 8.19357 16.6484ZM27.5002 8.33337C27.9423 8.33337 28.3662 8.15778 28.6787 7.84522C28.9913 7.53266 29.1669 7.10873 29.1669 6.66671C29.1669 6.22468 28.9913 5.80076 28.6787 5.4882C28.3662 5.17564 27.9423 5.00004 27.5002 5.00004C27.0582 5.00004 26.6343 5.17564 26.3217 5.4882C26.0092 5.80076 25.8336 6.22468 25.8336 6.66671C25.8336 7.10873 26.0092 7.53266 26.3217 7.84522C26.6343 8.15778 27.0582 8.33337 27.5002 8.33337ZM27.5002 10C28.3843 10 29.2321 9.64885 29.8573 9.02373C30.4824 8.39861 30.8336 7.55076 30.8336 6.66671C30.8336 5.78265 30.4824 4.93481 29.8573 4.30968C29.2321 3.68456 28.3843 3.33337 27.5002 3.33337C26.6162 3.33337 25.7683 3.68456 25.1432 4.30968C24.5181 4.93481 24.1669 5.78265 24.1669 6.66671C24.1669 7.55076 24.5181 8.39861 25.1432 9.02373C25.7683 9.64885 26.6162 10 27.5002 10Z" fill="#1E85A2"/>
</svg>
