<svg width="30" height="30" viewBox="0 0 30 30" fill="none" xmlns="http://www.w3.org/2000/svg">
<g clip-path="url(#clip0_1165_4)">
<path d="M0 28.125H30M13.75 15.625L12.455 14.33C11.2836 13.1583 10.6254 11.5694 10.625 9.9125V9.04125C11.4187 8.67125 12.9375 8.12625 15 8.12625C17.0625 8.12625 18.5813 8.67125 19.375 9.04125V9.9125C19.3754 11.57 20.0341 13.1594 21.2062 14.3313L22.5 15.625M20 24.375H8.125V23.125C8.125 22.1304 8.52009 21.1766 9.22335 20.4734C9.92661 19.7701 10.8804 19.375 11.875 19.375C12.465 19.375 16.5163 19.7938 20.625 20.235C25.2125 20.7288 29.375 15 29.375 15M5.625 22.375C5.625 22.375 4.375 24.375 2.8125 24.375C2.23234 24.375 1.67594 24.1445 1.2657 23.7343C0.855468 23.3241 0.625 22.7677 0.625 22.1875C0.625 20.98 1.605 20.005 2.8125 20.005C4.375 20.005 5.625 22 5.625 22V22.375ZM14.815 5.625C14.815 5.625 12.815 4.375 12.815 2.8125C12.815 1.605 13.795 0.625 15.0025 0.625C16.2112 0.625 17.185 1.605 17.185 2.8125C17.185 4.375 15.19 5.625 15.19 5.625H14.815Z" stroke="#1E85A2" stroke-width="1.5"/>
</g>
<defs>
<clipPath id="clip0_1165_4">
<rect width="30" height="30" fill="white"/>
</clipPath>
</defs>
</svg>
