<svg width="27" height="40" viewBox="0 0 27 40" fill="none" xmlns="http://www.w3.org/2000/svg">
<path d="M13.5 39.1667C11.8333 39.1667 10.5833 36.6667 10.5833 36.6667C9.33333 34.1667 9.33333 30.8333 9.33333 28.3333V27.5L1 23.3333V22.9167L4.005 14.2033C4.34423 13.2196 4.98192 12.3662 5.82919 11.7621C6.67646 11.1581 7.69109 10.8334 8.73167 10.8333H10.9983L11.8633 15.1467C12.0899 16.28 12.702 17.2999 13.5957 18.0328C14.4893 18.7657 15.6093 19.1664 16.765 19.1667H18.4933M6 29.1667C5.65 29.1667 5.22333 29.3883 4.77167 29.74C1.76333 32.0667 1 36.1967 1 40M20.16 24.1667V21.6667C20.16 21.0036 20.4234 20.3677 20.8922 19.8989C21.3611 19.4301 21.997 19.1667 22.66 19.1667C23.323 19.1667 23.9589 19.4301 24.4278 19.8989C24.8966 20.3677 25.16 21.0036 25.16 21.6667V39.1667M10.75 7.5C10.75 7.5 8.08333 5.83334 8.08333 3.75C8.08333 2.97734 8.39027 2.23632 8.93663 1.68997C9.48298 1.14361 10.224 0.83667 10.9967 0.83667C11.7693 0.83667 12.5103 1.14361 13.0567 1.68997C13.6031 2.23632 13.91 2.97734 13.91 3.75C13.91 5.83334 11.25 7.5 11.25 7.5H10.75Z" stroke="#1E85A2" stroke-width="2"/>
</svg>
