<svg width="30" height="21" viewBox="0 0 30 21" fill="none" xmlns="http://www.w3.org/2000/svg">
<path d="M29.3551 6.89051L26.3657 0.90809C26.2694 0.715339 26.1361 0.543435 25.9734 0.402194C25.8107 0.260952 25.6218 0.153139 25.4175 0.0849092C25.2131 0.0166799 24.9973 -0.010629 24.7824 0.00454128C24.5675 0.0197116 24.3576 0.0770639 24.1649 0.173324L21.1696 1.67098L14.9434 0.0233243C14.8258 -0.00714342 14.7024 -0.00714342 14.5848 0.0233243L8.35864 1.67098L5.3645 0.173324C5.17169 0.0768815 4.96177 0.0193839 4.74672 0.00411838C4.53168 -0.0111471 4.31574 0.016119 4.11124 0.0843576C3.90674 0.152596 3.7177 0.260469 3.55492 0.40181C3.39213 0.543152 3.2588 0.71519 3.16254 0.90809L0.173091 6.89051C-0.0213994 7.27965 -0.0533759 7.73009 0.0841929 8.1428C0.221762 8.55551 0.517612 8.89668 0.906685 9.09129L4.08833 10.6827L10.6051 15.3374C10.6758 15.3883 10.7552 15.4257 10.8395 15.4475L18.3395 17.3225C18.3966 17.3369 18.4553 17.3439 18.5141 17.3436C18.7005 17.3435 18.8792 17.2693 19.011 17.1374L25.4926 10.6557L28.6215 9.09129C29.0106 8.89668 29.3065 8.55551 29.444 8.1428C29.5816 7.73009 29.5496 7.27965 29.3551 6.89051ZM23.1442 11.0108L18.9489 7.64989C18.8136 7.5416 18.6431 7.4871 18.47 7.49683C18.297 7.50656 18.1337 7.57985 18.0114 7.70262C15.8258 9.90458 13.3825 9.62684 11.825 8.63075C11.7944 8.61187 11.7686 8.58619 11.7495 8.55571C11.7304 8.52522 11.7185 8.49075 11.7149 8.45497C11.7107 8.42215 11.7139 8.38882 11.7243 8.3574C11.7346 8.32598 11.7518 8.29726 11.7747 8.27332L16.9239 3.28114H20.8918L24.2211 9.93973L23.1442 11.0108ZM1.41762 7.69793C1.39824 7.63918 1.40288 7.57516 1.43051 7.51981L4.42114 1.53622C4.44079 1.49721 4.47096 1.46447 4.50823 1.44169C4.5455 1.41891 4.5884 1.407 4.63208 1.40731C4.66827 1.40735 4.70397 1.41577 4.73637 1.43192L7.33911 2.7327L4.13754 9.14051L1.53481 7.83973C1.50672 7.82522 1.48186 7.80518 1.46172 7.78081C1.44158 7.75644 1.42658 7.72825 1.41762 7.69793ZM18.2985 15.8624L11.3141 14.1163L5.34926 9.85536L8.76879 3.01746L14.7641 1.43075L16.4985 1.89012C16.3658 1.91578 16.2436 1.97975 16.1469 2.07411L10.7915 7.27137C10.6176 7.44515 10.485 7.65578 10.4034 7.88771C10.3219 8.11963 10.2935 8.36691 10.3204 8.61127C10.3473 8.85563 10.4288 9.09082 10.5588 9.29947C10.6888 9.50811 10.864 9.68487 11.0715 9.81668C13.4411 11.3307 16.3157 11.046 18.5481 9.12645L22.1469 12.0116L18.2985 15.8624ZM28.1106 7.69793C28.1009 7.72718 28.0856 7.75424 28.0655 7.77756C28.0454 7.80089 28.0209 7.82002 27.9934 7.83387L25.3907 9.14051L22.1891 2.7327L24.7918 1.43192C24.8194 1.41808 24.8494 1.40981 24.8802 1.4076C24.911 1.40539 24.9419 1.40927 24.9711 1.41903C25.0004 1.42867 25.0274 1.44399 25.0508 1.46409C25.0741 1.4842 25.0932 1.50871 25.1071 1.53622L28.0977 7.51981C28.1253 7.57516 28.13 7.63918 28.1106 7.69793ZM14.9856 19.6229C14.9405 19.8038 14.8254 19.9593 14.6656 20.0553C14.5059 20.1514 14.3145 20.18 14.1336 20.135L9.2434 18.9128C9.15904 18.8911 9.07952 18.8538 9.00903 18.8026L5.91879 16.5983C5.76697 16.4895 5.66457 16.3249 5.63413 16.1406C5.6037 15.9564 5.64771 15.7675 5.75649 15.6157C5.86527 15.4639 6.02991 15.3615 6.21418 15.331C6.39846 15.3006 6.58728 15.3446 6.73911 15.4534L9.7145 17.578L14.4735 18.7675C14.5633 18.7899 14.6478 18.8299 14.7221 18.8851C14.7965 18.9403 14.8592 19.0096 14.9066 19.0891C14.9541 19.1686 14.9854 19.2566 14.9988 19.3482C15.0121 19.4399 15.0072 19.5332 14.9844 19.6229H14.9856Z" fill="#1E85A2"/>
</svg>
