<svg width="30" height="30" viewBox="0 0 30 30" fill="none" xmlns="http://www.w3.org/2000/svg">
<path d="M15.8206 19.2318C27.6594 18.8506 23.46 3.57368 23.0756 5.48556C22.6913 7.39743 11.6213 18.4681 10.4731 16.9399C9.3275 15.4124 7.8 15.0306 7.03625 16.1762C6.2725 17.3218 5.89062 17.7037 5.89062 17.7037C5.89062 17.7037 8.18188 17.3218 8.56375 18.0856C8.94563 18.8493 10.1575 21.3556 12.3825 21.5224C12.3825 21.5224 13.1431 21.7818 14.6744 24.9593C16.46 28.6643 23.8413 24.9593 21.5494 23.0499C19.2575 21.1406 17.7306 21.9043 16.5863 21.1406C15.4406 20.3762 15.8225 19.2312 15.8225 19.2312L15.8206 19.2318Z" stroke="#1E85A2" stroke-width="1.5" stroke-linecap="round" stroke-linejoin="round"/>
<path d="M15.6464 13.8068C16.4114 7.44246 14.4927 0.976832 13.1489 4.33746C11.6214 8.15621 10.857 9.30058 10.857 9.30058C9.04204 11.025 7.20392 12.1756 7.51329 15.7087" stroke="#1E85A2" stroke-width="1.5" stroke-linecap="round" stroke-linejoin="round"/>
</svg>
