<svg width="40" height="40" viewBox="0 0 40 40" fill="none" xmlns="http://www.w3.org/2000/svg">
<rect x="0.5" y="0.5" width="39" height="39" rx="11.5" fill="white"/>
<rect x="0.5" y="0.5" width="39" height="39" rx="11.5" stroke="#B3B3B3"/>
<path d="M26.6496 19.2253C26.626 19.1232 26.5773 19.0285 26.5079 18.9498C26.4385 18.871 26.3506 18.8107 26.252 18.774L21.6708 18.0642L22.832 11.2619C22.8587 11.1275 22.8414 10.9881 22.7827 10.8642C22.7241 10.7403 22.627 10.6383 22.5059 10.5732C22.3835 10.5085 22.2431 10.4858 22.1065 10.5087C21.9698 10.5316 21.8446 10.5988 21.7503 10.6999L12.8424 20.1989C12.7694 20.2743 12.7166 20.3667 12.6888 20.4676C12.661 20.5686 12.6592 20.6749 12.6834 20.7768C12.7083 20.8783 12.7574 20.9723 12.8267 21.0508C12.8959 21.1294 12.9832 21.1902 13.081 21.228L17.6622 21.9378L16.501 28.7401C16.4743 28.8745 16.4916 29.0139 16.5503 29.1378C16.6089 29.2617 16.706 29.3637 16.8271 29.4288C16.9184 29.4746 17.0191 29.499 17.1214 29.5C17.2078 29.5004 17.2934 29.483 17.3728 29.4489C17.4522 29.4149 17.5236 29.3649 17.5827 29.3021L26.4906 19.8031C26.5636 19.7277 26.6164 19.6353 26.6442 19.5344C26.672 19.4334 26.6738 19.3271 26.6496 19.2253Z" fill="#1A1A1A"/>
</svg>
