<svg width="40" height="40" viewBox="0 0 40 40" fill="none" xmlns="http://www.w3.org/2000/svg">
<rect x="0.5" y="0.5" width="39" height="39" rx="11.5" fill="white"/>
<rect x="0.5" y="0.5" width="39" height="39" rx="11.5" stroke="#B3B3B3"/>
<path fill-rule="evenodd" clip-rule="evenodd" d="M15.333 16.5C15.333 13.7377 17.5707 11.5 20.333 11.5C23.0953 11.5 25.333 13.7377 25.333 16.5V17.5H27.333C28.833 17.5 29.333 18.22 29.333 19.1V28.6C29.333 29.7046 28.4376 30.6 27.333 30.6H13.333C12.2284 30.6 11.333 29.7046 11.333 28.6V19.1C11.333 18.22 11.833 17.5 13.183 17.5H15.333V16.5ZM23.333 16.5V17.5H17.333V16.5C17.333 14.8423 18.6753 13.5 20.333 13.5C21.9907 13.5 23.333 14.8423 23.333 16.5ZM20.333 20.5C19.2284 20.5 18.277 21.3968 18.333 22.5C18.37 23.2298 18.7418 23.8007 19.333 24.0816V25.5C19.333 25.9142 19.5102 27 20.333 27C21.1558 27 21.333 25.9142 21.333 25.5V24.0816C21.9242 23.8007 22.296 23.2298 22.333 22.5C22.389 21.3968 21.4376 20.5 20.333 20.5Z" fill="#1A1A1A"/>
</svg>
