<svg width="40" height="40" viewBox="0 0 40 40" fill="none" xmlns="http://www.w3.org/2000/svg">
<rect x="0.5" y="0.5" width="39" height="39" rx="11.5" fill="white"/>
<rect x="0.5" y="0.5" width="39" height="39" rx="11.5" stroke="#B3B3B3"/>
<path d="M23.8887 12C23.0694 12 22.2613 12.192 21.5284 12.5609C20.7956 12.9297 20.1581 13.4652 19.6665 14.125C19.0019 13.233 18.0753 12.5741 17.0179 12.2417C15.9606 11.9092 14.8262 11.92 13.7753 12.2726C12.7244 12.6252 11.8104 13.3017 11.1627 14.2062C10.515 15.1107 10.1665 16.1975 10.1665 17.3125C10.1665 23.6786 18.954 28.6989 19.3234 28.9114C19.4281 28.9706 19.5464 29.0011 19.6665 28.9999C19.7867 29.002 19.9052 28.9714 20.0096 28.9114C21.6278 27.9591 23.1456 26.8436 24.5396 25.5822C27.6096 22.802 29.1665 20.0218 29.1665 17.3125C29.1665 15.9035 28.6105 14.5523 27.6207 13.556C26.6309 12.5597 25.2885 12 23.8887 12Z" fill="#1A1A1A"/>
</svg>
