<svg width="40" height="40" viewBox="0 0 40 40" fill="none" xmlns="http://www.w3.org/2000/svg">
<rect x="0.5" y="0.5" width="39" height="39" rx="11.5" fill="white"/>
<rect x="0.5" y="0.5" width="39" height="39" rx="11.5" stroke="#B3B3B3"/>
<path d="M20.333 9.5C20.8853 9.5 21.333 9.94772 21.333 10.5V12.5C21.333 13.0523 20.8853 13.5 20.333 13.5C19.7807 13.5 19.333 13.0523 19.333 12.5V10.5C19.333 9.94772 19.7807 9.5 20.333 9.5Z" fill="#1A1A1A"/>
<path d="M20.333 27.5C20.8853 27.5 21.333 27.9477 21.333 28.5V30.5C21.333 31.0523 20.8853 31.5 20.333 31.5C19.7807 31.5 19.333 31.0523 19.333 30.5V28.5C19.333 27.9477 19.7807 27.5 20.333 27.5Z" fill="#1A1A1A"/>
<path d="M9.33301 20.5C9.33301 19.9477 9.78073 19.5 10.333 19.5H12.333C12.8853 19.5 13.333 19.9477 13.333 20.5C13.333 21.0523 12.8853 21.5 12.333 21.5H10.333C9.78073 21.5 9.33301 21.0523 9.33301 20.5Z" fill="#1A1A1A"/>
<path d="M27.333 20.5C27.333 19.9477 27.7807 19.5 28.333 19.5H30.333C30.8853 19.5 31.333 19.9477 31.333 20.5C31.333 21.0523 30.8853 21.5 30.333 21.5H28.333C27.7807 21.5 27.333 21.0523 27.333 20.5Z" fill="#1A1A1A"/>
<path d="M15.38 25.4528C15.7706 25.8434 15.7706 26.4765 15.38 26.867L13.97 28.277C13.5795 28.6676 12.9464 28.6676 12.5558 28.277C12.1653 27.8865 12.1653 27.2534 12.5558 26.8628L13.9658 25.4528C14.3564 25.0623 14.9895 25.0623 15.38 25.4528Z" fill="#1A1A1A"/>
<path d="M28.1101 12.7228C28.5007 13.1133 28.5007 13.7465 28.1101 14.137L26.7001 15.547C26.3096 15.9376 25.6765 15.9376 25.2859 15.547C24.8954 15.1565 24.8954 14.5233 25.2859 14.1328L26.6959 12.7228C27.0865 12.3323 27.7196 12.3323 28.1101 12.7228Z" fill="#1A1A1A"/>
<path d="M25.2859 25.4528C25.6765 25.0623 26.3096 25.0623 26.7001 25.4528L28.1101 26.8628C28.5007 27.2534 28.5007 27.8865 28.1101 28.277C27.7196 28.6676 27.0865 28.6676 26.6959 28.277L25.2859 26.867C24.8954 26.4765 24.8954 25.8434 25.2859 25.4528Z" fill="#1A1A1A"/>
<path d="M12.5558 12.7228C12.9464 12.3323 13.5795 12.3323 13.97 12.7228L15.38 14.1328C15.7706 14.5233 15.7706 15.1565 15.38 15.547C14.9895 15.9376 14.3564 15.9376 13.9658 15.547L12.5558 14.137C12.1653 13.7465 12.1653 13.1133 12.5558 12.7228Z" fill="#1A1A1A"/>
<path d="M20.333 15.5C17.5716 15.5 15.333 17.7386 15.333 20.5C15.333 23.2614 17.5716 25.5 20.333 25.5C23.0944 25.5 25.333 23.2614 25.333 20.5C25.333 17.7386 23.0944 15.5 20.333 15.5Z" fill="#1A1A1A"/>
</svg>
