<svg width="40" height="40" viewBox="0 0 40 40" fill="none" xmlns="http://www.w3.org/2000/svg">
<g clip-path="url(#clip0_573_1155)">
<rect width="40" height="40" rx="12" fill="white"/>
<path d="M24.9104 12.0525C24.9104 11.8025 24.7404 11.5845 24.4981 11.5239L24.1998 11.4492C23.9009 11.3744 23.628 11.2197 23.4102 11.0017C23.1923 10.7836 23.0378 10.5104 22.9631 10.2113L22.8885 9.91295C22.8279 9.67026 22.6101 9.5 22.3602 9.5C22.1105 9.5 21.8928 9.66995 21.832 9.91236L21.7569 10.2113C21.6823 10.5103 21.5279 10.7835 21.3102 11.0015C21.0925 11.2195 20.8198 11.3743 20.5211 11.4492L20.2228 11.5239C19.9805 11.5845 19.8105 11.8025 19.8105 12.0525C19.8105 12.3025 19.9805 12.5204 20.2228 12.5811L20.5211 12.6557C20.8199 12.7305 21.0929 12.8852 21.3107 13.1033C21.5285 13.3213 21.6831 13.5945 21.7578 13.8937L21.8324 14.1922C21.8929 14.4348 22.1107 14.6049 22.3604 14.6049C22.6102 14.6049 22.8279 14.4348 22.8885 14.1922L22.9631 13.8937C23.0378 13.5945 23.1923 13.3213 23.4102 13.1033C23.628 12.8852 23.9009 12.7305 24.1998 12.6557L24.4981 12.5811C24.7404 12.5204 24.9104 12.3025 24.9104 12.0525Z" fill="#1A1A1A"/>
<path d="M31 17C31 16.6572 30.7667 16.3583 30.4341 16.2752L30.0247 16.1728C29.6145 16.0703 29.2399 15.8581 28.9409 15.5591C28.6419 15.2602 28.4298 14.8855 28.3272 14.4753L28.2248 14.0659C28.1417 13.7333 27.8428 13.5 27.5 13.5C27.1572 13.5 26.8584 13.7333 26.7752 14.0659L26.6728 14.4753C26.5703 14.8855 26.3581 15.2602 26.0591 15.5591C25.7602 15.8581 25.3855 16.0703 24.9753 16.1728L24.5659 16.2752C24.2333 16.3583 24 16.6572 24 17C24 17.3428 24.2333 17.6417 24.5659 17.7248L24.9753 17.8272C25.3855 17.9298 25.7602 18.1419 26.0591 18.4409C26.3581 18.7399 26.5703 19.1145 26.6728 19.5247L26.7752 19.9341C26.8584 20.2667 27.1572 20.5 27.5 20.5C27.8428 20.5 28.1417 20.2667 28.2248 19.9341L28.3272 19.5247C28.4298 19.1145 28.6419 18.7399 28.9409 18.4409C29.2399 18.1419 29.6145 17.9298 30.0247 17.8272L30.4341 17.7248C30.7667 17.6417 31 17.3428 31 17Z" fill="#1A1A1A"/>
<path d="M16.7135 14.0138C16.9838 13.3287 18.017 13.3287 18.2873 14.0138L20.2371 19.1693C20.322 19.3847 20.5031 20.1172 20.7328 20.1969L25.4521 22.2758C26.1826 22.5293 26.1826 23.4982 25.4521 23.7517L20.7328 25.3346C20.5031 25.4143 20.322 26.1468 20.2371 26.3622L18.2873 30.9862C18.017 31.6713 16.9838 31.6713 16.7135 30.9862L14.7637 26.3622C14.6788 26.1468 14.4977 25.4143 14.268 25.3346L9.54788 23.7517C8.81737 23.4982 8.81737 22.5293 9.54788 22.2758L14.268 20.1969C14.4977 20.1172 14.6788 19.3847 14.7637 19.1693L16.7135 14.0138Z" fill="#1A1A1A"/>
</g>
<rect x="0.5" y="0.5" width="39" height="39" rx="11.5" stroke="#B3B3B3"/>
<defs>
<clipPath id="clip0_573_1155">
<rect width="40" height="40" rx="12" fill="white"/>
</clipPath>
</defs>
</svg>
